<svg width="211" height="55" viewBox="0 0 211 55" fill="none" xmlns="http://www.w3.org/2000/svg">
<path d="M62.5669 18.96C63.1069 18.08 63.8069 17.39 64.6669 16.89C65.5469 16.39 66.5469 16.14 67.6669 16.14V20.55H66.5569C65.2369 20.55 64.2369 20.86 63.5569 21.48C62.8969 22.1 62.5669 23.18 62.5669 24.72V33H58.3669V16.38H62.5669V18.96ZM85.9458 24.33C85.9458 24.93 85.9058 25.47 85.8258 25.95H73.6758C73.7758 27.15 74.1958 28.09 74.9358 28.77C75.6758 29.45 76.5858 29.79 77.6658 29.79C79.2258 29.79 80.3358 29.12 80.9958 27.78H85.5258C85.0458 29.38 84.1258 30.7 82.7658 31.74C81.4058 32.76 79.7358 33.27 77.7558 33.27C76.1558 33.27 74.7158 32.92 73.4358 32.22C72.1758 31.5 71.1858 30.49 70.4658 29.19C69.7658 27.89 69.4158 26.39 69.4158 24.69C69.4158 22.97 69.7658 21.46 70.4658 20.16C71.1658 18.86 72.1458 17.86 73.4058 17.16C74.6658 16.46 76.1158 16.11 77.7558 16.11C79.3358 16.11 80.7458 16.45 81.9858 17.13C83.2458 17.81 84.2158 18.78 84.8958 20.04C85.5958 21.28 85.9458 22.71 85.9458 24.33ZM81.5958 23.13C81.5758 22.05 81.1858 21.19 80.4258 20.55C79.6658 19.89 78.7358 19.56 77.6358 19.56C76.5958 19.56 75.7158 19.88 74.9958 20.52C74.2958 21.14 73.8658 22.01 73.7058 23.13H81.5958ZM93.2114 18.78C93.7514 18.02 94.4914 17.39 95.4314 16.89C96.3914 16.37 97.4814 16.11 98.7014 16.11C100.121 16.11 101.401 16.46 102.541 17.16C103.701 17.86 104.611 18.86 105.271 20.16C105.951 21.44 106.291 22.93 106.291 24.63C106.291 26.33 105.951 27.84 105.271 29.16C104.611 30.46 103.701 31.47 102.541 32.19C101.401 32.91 100.121 33.27 98.7014 33.27C97.4814 33.27 96.4014 33.02 95.4614 32.52C94.5414 32.02 93.7914 31.39 93.2114 30.63V40.92H89.0114V16.38H93.2114V18.78ZM102.001 24.63C102.001 23.63 101.791 22.77 101.371 22.05C100.971 21.31 100.431 20.75 99.7514 20.37C99.0914 19.99 98.3714 19.8 97.5914 19.8C96.8314 19.8 96.1114 20 95.4314 20.4C94.7714 20.78 94.2314 21.34 93.8114 22.08C93.4114 22.82 93.2114 23.69 93.2114 24.69C93.2114 25.69 93.4114 26.56 93.8114 27.3C94.2314 28.04 94.7714 28.61 95.4314 29.01C96.1114 29.39 96.8314 29.58 97.5914 29.58C98.3714 29.58 99.0914 29.38 99.7514 28.98C100.431 28.58 100.971 28.01 101.371 27.27C101.791 26.53 102.001 25.65 102.001 24.63ZM113.543 10.8V33H109.343V10.8H113.543ZM133.593 16.38L123.303 40.86H118.833L122.433 32.58L115.773 16.38H120.483L124.773 27.99L129.123 16.38H133.593ZM147.737 22.26C148.917 22.48 149.887 23.07 150.647 24.03C151.407 24.99 151.787 26.09 151.787 27.33C151.787 28.45 151.507 29.44 150.947 30.3C150.407 31.14 149.617 31.8 148.577 32.28C147.537 32.76 146.307 33 144.887 33H135.857V12.06H144.497C145.917 12.06 147.137 12.29 148.157 12.75C149.197 13.21 149.977 13.85 150.497 14.67C151.037 15.49 151.307 16.42 151.307 17.46C151.307 18.68 150.977 19.7 150.317 20.52C149.677 21.34 148.817 21.92 147.737 22.26ZM140.057 20.7H143.897C144.897 20.7 145.667 20.48 146.207 20.04C146.747 19.58 147.017 18.93 147.017 18.09C147.017 17.25 146.747 16.6 146.207 16.14C145.667 15.68 144.897 15.45 143.897 15.45H140.057V20.7ZM144.287 29.58C145.307 29.58 146.097 29.34 146.657 28.86C147.237 28.38 147.527 27.7 147.527 26.82C147.527 25.92 147.227 25.22 146.627 24.72C146.027 24.2 145.217 23.94 144.197 23.94H140.057V29.58H144.287ZM171.034 16.38L160.744 40.86H156.274L159.874 32.58L153.214 16.38H157.924L162.214 27.99L166.564 16.38H171.034ZM175.159 33.21C174.399 33.21 173.769 32.98 173.269 32.52C172.789 32.04 172.549 31.45 172.549 30.75C172.549 30.05 172.789 29.47 173.269 29.01C173.769 28.53 174.399 28.29 175.159 28.29C175.899 28.29 176.509 28.53 176.989 29.01C177.469 29.47 177.709 30.05 177.709 30.75C177.709 31.45 177.469 32.04 176.989 32.52C176.509 32.98 175.899 33.21 175.159 33.21Z" fill="#37474F"/>
<path d="M180.011 24.63C180.011 22.95 180.341 21.46 181.001 20.16C181.681 18.86 182.591 17.86 183.731 17.16C184.891 16.46 186.181 16.11 187.601 16.11C188.841 16.11 189.921 16.36 190.841 16.86C191.781 17.36 192.531 17.99 193.091 18.75V16.38H197.321V33H193.091V30.57C192.551 31.35 191.801 32 190.841 32.52C189.901 33.02 188.811 33.27 187.571 33.27C186.171 33.27 184.891 32.91 183.731 32.19C182.591 31.47 181.681 30.46 181.001 29.16C180.341 27.84 180.011 26.33 180.011 24.63ZM193.091 24.69C193.091 23.67 192.891 22.8 192.491 22.08C192.091 21.34 191.551 20.78 190.871 20.4C190.191 20 189.461 19.8 188.681 19.8C187.901 19.8 187.181 19.99 186.521 20.37C185.861 20.75 185.321 21.31 184.901 22.05C184.501 22.77 184.301 23.63 184.301 24.63C184.301 25.63 184.501 26.51 184.901 27.27C185.321 28.01 185.861 28.58 186.521 28.98C187.201 29.38 187.921 29.58 188.681 29.58C189.461 29.58 190.191 29.39 190.871 29.01C191.551 28.61 192.091 28.05 192.491 27.33C192.891 26.59 193.091 25.71 193.091 24.69ZM203.554 14.4C202.814 14.4 202.194 14.17 201.694 13.71C201.214 13.23 200.974 12.64 200.974 11.94C200.974 11.24 201.214 10.66 201.694 10.2C202.194 9.72 202.814 9.48 203.554 9.48C204.294 9.48 204.904 9.72 205.384 10.2C205.884 10.66 206.134 11.24 206.134 11.94C206.134 12.64 205.884 13.23 205.384 13.71C204.904 14.17 204.294 14.4 203.554 14.4ZM205.624 16.38V33H201.424V16.38H205.624Z" fill="#69F0AE"/>
<g filter="url(#filter0_d_108_11)">
<path fill-rule="evenodd" clip-rule="evenodd" d="M25.1667 36.75V50.5C18.171 50.5 12.5 44.9596 12.5 38.125C12.5 37.6602 12.5263 37.2014 12.5773 36.75H12.5V12H41V36.75H25.1667Z" fill="#37474F"/>
<path fill-rule="evenodd" clip-rule="evenodd" d="M14.6667 30.75V44.5C7.67102 44.5 2 38.9596 2 32.125C2 31.6602 2.02628 31.2014 2.07726 30.75H2V6H30.5V30.75H14.6667Z" fill="#69F0AE"/>
</g>
<defs>
<filter id="filter0_d_108_11" x="0" y="4" width="45" height="50.5" filterUnits="userSpaceOnUse" color-interpolation-filters="sRGB">
<feFlood flood-opacity="0" result="BackgroundImageFix"/>
<feColorMatrix in="SourceAlpha" type="matrix" values="0 0 0 0 0 0 0 0 0 0 0 0 0 0 0 0 0 0 127 0" result="hardAlpha"/>
<feOffset dx="1" dy="1"/>
<feGaussianBlur stdDeviation="1.5"/>
<feColorMatrix type="matrix" values="0 0 0 0 0 0 0 0 0 0 0 0 0 0 0 0 0 0 0.152938 0"/>
<feBlend mode="normal" in2="BackgroundImageFix" result="effect1_dropShadow_108_11"/>
<feBlend mode="normal" in="SourceGraphic" in2="effect1_dropShadow_108_11" result="shape"/>
</filter>
</defs>
</svg>
